<svg width="900" height="100" xmlns="http://www.w3.org/2000/svg" version="1.1">

    <g>
        <path id="svg_1" fill="#282c3e"
            d="m0.01413,16.00494l15,2c15,2 45,6 75,4.7c30,-1.4 60,-8 90,-8.5c30,-0.5 60,5.1 90,8.5c30,3.3 60,4.3 90,3c30,-1.4 60,-5 90,-4.7c30,0.3 60,4.7 90,7c30,2.3 60,2.7 90,-0.3c30,-3 60,-9.4 90,-11.5c30,-2.2 60,-0.2 90,-0.7c30,-0.5 60,-3.5 75,-5l15,-1.5l0,91l-15,0c-15,0 -45,0 -75,0c-30,0 -60,0 -90,0c-30,0 -60,0 -90,0c-30,0 -60,0 -90,0c-30,0 -60,0 -90,0c-30,0 -60,0 -90,0c-30,0 -60,0 -90,0c-30,0 -60,0 -90,0c-30,0 -60,0 -90,0c-30,0 -60,0 -75,0l-15,0l0,-84z" />
        <path id="svg_2" fill="#2d3146"
            d="m0.01413,31.00494l15,1c15,1 45,3 75,4.8c30,1.9 60,3.5 90,2.7c30,-0.8 60,-4.2 90,-6.5c30,-2.3 60,-3.7 90,-1.8c30,1.8 60,6.8 90,9.6c30,2.9 60,3.5 90,4.2c30,0.7 60,1.3 90,1.3c30,0 60,-0.6 90,-3.8c30,-3.2 60,-8.8 90,-11c30,-2.2 60,-0.8 75,-0.2l15,0.7l0,68l-15,0c-15,0 -45,0 -75,0c-30,0 -60,0 -90,0c-30,0 -60,0 -90,0c-30,0 -60,0 -90,0c-30,0 -60,0 -90,0c-30,0 -60,0 -90,0c-30,0 -60,0 -90,0c-30,0 -60,0 -90,0c-30,0 -60,0 -90,0c-30,0 -60,0 -75,0l-15,0l0,-69z" />
        <path id="svg_3" fill="#31374e"
            d="m0.01413,44.00494l15,3.2c15,3.1 45,9.5 75,9.6c30,0.2 60,-5.8 90,-6c30,-0.1 60,5.5 90,8.9c30,3.3 60,4.3 90,5c30,0.6 60,1 90,-2.4c30,-3.3 60,-10.3 90,-12.1c30,-1.9 60,1.5 90,3.8c30,2.3 60,3.7 90,2.2c30,-1.5 60,-5.9 90,-8c30,-2.2 60,-2.2 75,-2.2l15,0l0,54l-15,0c-15,0 -45,0 -75,0c-30,0 -60,0 -90,0c-30,0 -60,0 -90,0c-30,0 -60,0 -90,0c-30,0 -60,0 -90,0c-30,0 -60,0 -90,0c-30,0 -60,0 -90,0c-30,0 -60,0 -90,0c-30,0 -60,0 -90,0c-30,0 -60,0 -75,0l-15,0l0,-56z" />
        <path id="svg_4" fill="#363d57"
            d="m0.01413,67.00494l15,0c15,0 45,0 75,0.8c30,0.9 60,2.5 90,2.4c30,-0.2 60,-2.2 90,-2.2c30,0 60,2 90,2.3c30,0.4 60,-1 90,0.4c30,1.3 60,5.3 90,5.8c30,0.5 60,-2.5 90,-4.2c30,-1.6 60,-2 90,-1c30,1 60,3.4 90,4.9c30,1.5 60,2.1 75,2.5l15,0.3l0,21l-15,0c-15,0 -45,0 -75,0c-30,0 -60,0 -90,0c-30,0 -60,0 -90,0c-30,0 -60,0 -90,0c-30,0 -60,0 -90,0c-30,0 -60,0 -90,0c-30,0 -60,0 -90,0c-30,0 -60,0 -90,0c-30,0 -60,0 -90,0c-30,0 -60,0 -75,0l-15,0l0,-33z" />
    </g>
</svg>