<svg width="900" height="100" xmlns="http://www.w3.org/2000/svg" version="1.1">
    <g>
        <path id="svg_1" fill="#282c3e"
            d="m0,91l16.7,-0.5c16.6,-0.5 50,-1.5 83.3,-3.8c33.3,-2.4 66.7,-6 100,-5.7c33.3,0.3 66.7,4.7 100,4.3c33.3,-0.3 66.7,-5.3 100,-6.6c33.3,-1.4 66.7,1 100,2.8c33.3,1.8 66.7,3.2 100,1.8c33.3,-1.3 66.7,-5.3 100,-6c33.3,-0.6 66.7,2 100,2.2c33.3,0.2 66.7,-2.2 83.3,-3.3l16.7,-1.2l0,-75l-16.7,0c-16.6,0 -50,0 -83.3,0c-33.3,0 -66.7,0 -100,0c-33.3,0 -66.7,0 -100,0c-33.3,0 -66.7,0 -100,0c-33.3,0 -66.7,0 -100,0c-33.3,0 -66.7,0 -100,0c-33.3,0 -66.7,0 -100,0c-33.3,0 -66.7,0 -100,0c-33.3,0 -66.7,0 -83.3,0l-16.7,0l0,91z" />
        <path id="svg_2" fill="#2d3146"
            d="m0,69l16.7,-2.3c16.6,-2.4 50,-7 83.3,-8.9c33.3,-1.8 66.7,-0.8 100,0c33.3,0.9 66.7,1.5 100,1.5c33.3,0 66.7,-0.6 100,0.2c33.3,0.8 66.7,3.2 100,4.8c33.3,1.7 66.7,2.7 100,1c33.3,-1.6 66.7,-6 100,-7.8c33.3,-1.8 66.7,-1.2 100,-0.7c33.3,0.5 66.7,0.9 83.3,1l16.7,0.2l0,-58l-16.7,0c-16.6,0 -50,0 -83.3,0c-33.3,0 -66.7,0 -100,0c-33.3,0 -66.7,0 -100,0c-33.3,0 -66.7,0 -100,0c-33.3,0 -66.7,0 -100,0c-33.3,0 -66.7,0 -100,0c-33.3,0 -66.7,0 -100,0c-33.3,0 -66.7,0 -100,0c-33.3,0 -66.7,0 -83.3,0l-16.7,0l0,69z" />
        <path id="svg_3" fill="#31374e"
            d="m0,44l16.7,-0.8c16.6,-0.9 50,-2.5 83.3,-4c33.3,-1.5 66.7,-2.9 100,-2.7c33.3,0.2 66.7,1.8 100,4c33.3,2.2 66.7,4.8 100,4.8c33.3,0 66.7,-2.6 100,-4.3c33.3,-1.7 66.7,-2.3 100,-2.2c33.3,0.2 66.7,1.2 100,2c33.3,0.9 66.7,1.5 100,1c33.3,-0.5 66.7,-2.1 83.3,-3l16.7,-0.8l0,-38l-16.7,0c-16.6,0 -50,0 -83.3,0c-33.3,0 -66.7,0 -100,0c-33.3,0 -66.7,0 -100,0c-33.3,0 -66.7,0 -100,0c-33.3,0 -66.7,0 -100,0c-33.3,0 -66.7,0 -100,0c-33.3,0 -66.7,0 -100,0c-33.3,0 -66.7,0 -100,0c-33.3,0 -66.7,0 -83.3,0l-16.7,0l0,44z" />
        <path id="svg_4" fill="#363d57"
            d="m0,17l16.7,1c16.6,1 50,3 83.3,3.7c33.3,0.6 66.7,0 100,-0.7c33.3,-0.7 66.7,-1.3 100,0.2c33.3,1.5 66.7,5.1 100,5.5c33.3,0.3 66.7,-2.7 100,-3c33.3,-0.4 66.7,2 100,1.1c33.3,-0.8 66.7,-4.8 100,-6.8c33.3,-2 66.7,-2 100,-1.7c33.3,0.4 66.7,1 83.3,1.4l16.7,0.3l0,-18l-16.7,0c-16.6,0 -50,0 -83.3,0c-33.3,0 -66.7,0 -100,0c-33.3,0 -66.7,0 -100,0c-33.3,0 -66.7,0 -100,0c-33.3,0 -66.7,0 -100,0c-33.3,0 -66.7,0 -100,0c-33.3,0 -66.7,0 -100,0c-33.3,0 -66.7,0 -100,0c-33.3,0 -66.7,0 -83.3,0l-16.7,0l0,17z" />
    </g>
</svg>